<svg width="131" height="16" viewBox="0 0 131 16" fill="none" xmlns="http://www.w3.org/2000/svg">
<path d="M60.6631 0C63.2111 0 65.3883 0.405774 67.1943 1.21777C69.0001 2.02969 70.2531 3.12138 70.9531 4.49316L67.2363 5.04004C66.6203 4.29804 65.7313 3.73738 64.5693 3.35938C63.4213 2.98137 62.1051 2.79297 60.6211 2.79297C58.1152 2.79299 56.2112 3.2473 54.9092 4.15723C53.6212 5.06721 52.9776 6.32754 52.9775 7.9375C52.9775 9.56142 53.6213 10.8283 54.9092 11.7383C56.2112 12.6483 58.1152 13.1035 60.6211 13.1035C62.1609 13.1035 63.5259 12.9075 64.7158 12.5156C65.9057 12.1097 66.8023 11.5219 67.4043 10.752L71.1426 11.2979C70.4566 12.6978 69.1962 13.8173 67.3623 14.6572C65.5283 15.4832 63.2951 15.8965 60.6631 15.8965C58.2974 15.8965 56.2746 15.5885 54.5947 14.9727C52.9287 14.3427 51.661 13.4322 50.793 12.2422C49.9392 11.0523 49.5127 9.61732 49.5127 7.9375C49.5127 6.27154 49.9465 4.8433 50.8145 3.65332C51.6824 2.46346 52.9494 1.56029 54.6152 0.944336C56.2812 0.314369 58.2972 1.38817e-05 60.6631 0ZM87.0664 3.7373C89.8942 3.73736 92.0428 4.27004 93.5127 5.33398C94.9966 6.38391 95.7391 7.86736 95.7393 9.78516C95.7393 11.7172 94.9967 13.2228 93.5127 14.3008C92.0428 15.3646 89.894 15.8964 87.0664 15.8965C84.2384 15.8965 82.0817 15.3648 80.5977 14.3008C79.1277 13.2228 78.3926 11.7171 78.3926 9.78516C78.3927 7.86754 79.128 6.38389 80.5977 5.33398C82.0817 4.26998 84.2384 3.7373 87.0664 3.7373ZM100.606 9.28125C100.606 10.0793 100.76 10.7798 101.068 11.3818C101.39 11.9698 101.832 12.4251 102.392 12.7471C102.952 13.055 103.589 13.209 104.303 13.209C105.045 13.209 105.724 13.055 106.34 12.7471C106.97 12.4251 107.46 11.9697 107.81 11.3818C108.174 10.7938 108.355 10.1072 108.355 9.32324V4.2627H111.548V15.3506H109.259L108.691 13.4189C108.201 14.1748 107.508 14.7767 106.612 15.2246C105.716 15.6725 104.743 15.8965 103.693 15.8965C102.433 15.8965 101.328 15.6231 100.376 15.0771C99.4241 14.5172 98.6889 13.7548 98.1709 12.7891C97.6669 11.8091 97.4151 10.7027 97.415 9.4707V4.2627H100.606V9.28125ZM130.756 15.3506H128.446L127.753 13.5654C126.031 15.1194 123.742 15.8965 120.886 15.8965C119.402 15.8965 118.093 15.6446 116.959 15.1406C115.839 14.6227 114.971 13.9088 114.355 12.999C113.739 12.075 113.431 11.0106 113.431 9.80664C113.431 8.61664 113.739 7.56625 114.355 6.65625C114.971 5.73248 115.839 5.01857 116.959 4.51465C118.093 3.99668 119.402 3.73733 120.886 3.7373C123.658 3.7373 125.884 4.46587 127.564 5.92188V0.545898H130.756V15.3506ZM9.93262 12.3682H10.7314L17.2197 0.545898H20.79L12.4111 15.3506H8.19043L0 0.545898H3.59082L9.93262 12.3682ZM25.6074 6.38379H27.0781L35.0996 0.545898H39.6777L29.7871 7.70703L40.4551 15.3506H35.5615L26.9521 9.17676H25.6074V15.3506H22.248V0.545898H25.6074V6.38379ZM76.4043 15.3506H73.2119V0.545898H76.4043V15.3506ZM87.0664 6.2998C85.1907 6.2998 83.7902 6.6003 82.8662 7.20215C81.9563 7.80407 81.5011 8.66537 81.501 9.78516C81.501 10.9191 81.9562 11.7942 82.8662 12.4102C83.7762 13.0122 85.1764 13.3135 87.0664 13.3135C88.9562 13.3134 90.3557 13.0121 91.2656 12.4102C92.1756 11.7942 92.6309 10.9192 92.6309 9.78516C92.6307 8.66537 92.169 7.80407 91.2451 7.20215C90.3352 6.60024 88.9421 6.29985 87.0664 6.2998ZM121.789 6.2998C120.081 6.2998 118.793 6.60019 117.925 7.20215C117.057 7.80415 116.623 8.67264 116.623 9.80664C116.623 10.9405 117.057 11.8082 117.925 12.4102C118.793 13.0122 120.081 13.3135 121.789 13.3135C123.637 13.3135 125.072 13.0056 126.094 12.3896C127.13 11.7737 127.648 10.9126 127.648 9.80664C127.648 8.70064 127.13 7.83963 126.094 7.22363C125.072 6.6077 123.637 6.29981 121.789 6.2998Z" fill="#252629"/>
</svg>
